<svg version="1.1" xmlns="http://www.w3.org/2000/svg" xmlns:xlink="http://www.w3.org/1999/xlink" width="148px" height="148px" viewBox="0,0,256,256"><g fill="#ffffff" fill-rule="nonzero" stroke="none" stroke-width="1" stroke-linecap="butt" stroke-linejoin="miter" stroke-miterlimit="10" stroke-dasharray="" stroke-dashoffset="0" font-family="none" font-weight="none" font-size="none" text-anchor="none" style="mix-blend-mode: normal"><g transform="translate(-3.73905,-4.52528) scale(1.72973,1.72973)"><g><path d="M76.2,87.3c-2.8,0 -4.1,1.8 -4.1,4.6c0,3.8 0,7.6 0,11.5c0,4.2 0,8.3 0,12.5c0,2.8 1.4,4.6 4.1,4.6c2.7,0 4.1,-1.8 4.1,-4.6c0,-8 0,-15.9 0,-23.9c0,-2.9 -1.3,-4.7 -4.1,-4.7z"></path><path d="M101.1,120.3c2.7,0.1 4.2,-1.6 4.2,-4.4c0,-8.1 0,-16.3 0,-24.4c0,-2.5 -1.4,-4.2 -3.9,-4.2c-2.8,-0.1 -4.2,1.6 -4.2,4.4c0,4 0,8 0,12c0,4 0,8 0,12c-0.1,2.7 1.2,4.5 3.9,4.6z"></path><path d="M55.3,104.1c0,-4 0,-8 0,-12c0,-2.9 -1.1,-5 -4.3,-4.9c-2.9,0.1 -3.9,2 -3.9,4.7c0,7.8 0,15.6 0,23.4c0,2.9 1.2,5 4.3,4.9c3,-0.1 4,-2.3 4,-5.2c-0.2,-3.5 -0.1,-7.2 -0.1,-10.9z"></path><path d="M140,62.1c-1,-5 -4.4,-8.7 -9.7,-8.3c-5.6,0.4 -8.8,-2.4 -12.3,-5.9c-9.7,-9.9 -19.5,-19.6 -29.3,-29.4c-2.1,-2.1 -4.4,-3.6 -6.9,-1.3c-2.9,2.6 -1.2,5 1,7.2c3.2,3.2 6.4,6.4 9.5,9.5c6.3,6.2 12.6,12.5 19.6,19.4c-24.3,0 -47.3,0 -72.1,0c3.8,-3.6 6.7,-6.1 9.4,-8.8c7,-6.9 13.9,-13.9 20.8,-20.8c2,-2 2.8,-4.3 0.5,-6.5c-2.1,-1.9 -4.3,-1.3 -6.2,0.5c-0.9,0.8 -1.6,1.6 -2.5,2.5c-9.5,9.5 -19.2,19 -28.5,28.7c-3.1,3.2 -6,5 -10.7,4.8c-5.7,-0.2 -9.2,3.1 -10.3,8.3c-1.4,7.1 0.3,13.6 5.2,15.3c3.7,1.3 4.1,3.7 4.5,6.7c2.1,13 4.2,25.9 6.4,38.9c1.9,11.1 5.8,14.3 17.2,14.3c20.7,0 41.3,0 62,0c12.1,0 16.1,-3.7 17.6,-15.5c1.7,-13.2 3.8,-26.3 5.6,-39.5c0.3,-2.4 1.1,-3.6 3.5,-4.5c5.3,-2.2 7.2,-8.1 5.7,-15.6zM127.4,70.5c-12.2,-0.2 -24.3,0 -36.5,-0.1c-3,0 -6.1,0.2 -6.1,4c0,3.8 2.9,4.2 6,4.2c10.5,-0.1 21,0 32.1,0c-2.2,15.3 -4.4,30.1 -6.5,45c-0.5,3.7 -2.2,5.2 -5.9,5.1c-22.5,-0.1 -45,-0.1 -67.5,0c-3.7,0 -5.4,-1.5 -6,-5.1c-2.2,-13.6 -4.5,-27.2 -6.9,-40.8c-0.5,-3 -0.2,-4.4 3.5,-4.3c8.7,0.3 17.3,0.1 26,0.1c3.3,0 8,1.1 7.9,-4.2c-0.1,-5.3 -4.8,-3.9 -8.1,-3.9c-11.5,-0.1 -23,-0.2 -34.5,0c-3.5,0.1 -4.7,-1 -4.7,-4.6c0,-3.6 1.7,-4 4.6,-4c34.1,0.1 68.3,0.1 102.4,0c3,0 4.6,0.6 4.6,4.1c0.3,3.6 -1,4.6 -4.4,4.5z"></path></g></g></g></svg>