<?xml version="1.0" encoding="utf-8"?>
<!-- Generator: Adobe Illustrator 26.5.0, SVG Export Plug-In . SVG Version: 6.00 Build 0)  -->
<svg version="1.1" id="Layer_1" xmlns="http://www.w3.org/2000/svg" xmlns:xlink="http://www.w3.org/1999/xlink" x="0px" y="0px"
	 viewBox="0 0 148 148" style="enable-background:new 0 0 148 148;" xml:space="preserve">
<style type="text/css">
	.st0{opacity:0.6;}
	.st1{fill:#FFFFFF;}
</style>
<g class="st0">
	<g transform="translate(-3.73905,-4.52528) scale(1.72973,1.72973)">
		<g>
			<path class="st1" d="M45,51.6c-1.6,0-2.4,1-2.4,2.7c0,2.2,0,4.4,0,6.6c0,2.4,0,4.8,0,7.2c0,1.6,0.8,2.7,2.4,2.7s2.4-1,2.4-2.7
				c0-4.6,0-9.2,0-13.8C47.3,52.6,46.6,51.6,45,51.6z"/>
			<path class="st1" d="M59.4,70.7c1.6,0.1,2.4-0.9,2.4-2.5c0-4.7,0-9.4,0-14.1c0-1.4-0.8-2.4-2.3-2.4c-1.6-0.1-2.4,0.9-2.4,2.5
				c0,2.3,0,4.6,0,6.9s0,4.6,0,6.9C57,69.6,57.8,70.6,59.4,70.7z"/>
			<path class="st1" d="M32.9,61.3c0-2.3,0-4.6,0-6.9c0-1.7-0.6-2.9-2.5-2.8c-1.7,0.1-2.3,1.2-2.3,2.7c0,4.5,0,9,0,13.5
				c0,1.7,0.7,2.9,2.5,2.8c1.7-0.1,2.3-1.3,2.3-3C32.8,65.6,32.9,63.4,32.9,61.3z"/>
			<path class="st1" d="M81.8,37c-0.6-2.9-2.5-5-5.6-4.8c-3.2,0.2-5.1-1.4-7.1-3.4c-5.6-5.7-11.3-11.3-16.9-17
				c-1.2-1.2-2.5-2.1-4-0.8c-1.7,1.5-0.7,2.9,0.6,4.2c1.8,1.8,3.7,3.7,5.5,5.5c3.6,3.6,7.3,7.2,11.3,11.2c-14,0-27.3,0-41.7,0
				c2.2-2.1,3.9-3.5,5.4-5.1c4-4,8-8,12-12c1.2-1.2,1.6-2.5,0.3-3.8c-1.2-1.1-2.5-0.8-3.6,0.3c-0.5,0.5-0.9,0.9-1.4,1.4
				c-5.5,5.5-11.1,11-16.5,16.6c-1.8,1.9-3.5,2.9-6.2,2.8c-3.3-0.1-5.3,1.8-6,4.8c-0.8,4.1,0.2,7.9,3,8.8c2.1,0.8,2.4,2.1,2.6,3.9
				c1.2,7.5,2.4,15,3.7,22.5c1.1,6.4,3.4,8.3,9.9,8.3c12,0,23.9,0,35.8,0c7,0,9.3-2.1,10.2-9c1-7.6,2.2-15.2,3.2-22.8
				c0.2-1.4,0.6-2.1,2-2.6C81.6,44.8,82.7,41.3,81.8,37z M74.6,41.9c-7.1-0.1-14,0-21.1-0.1c-1.7,0-3.5,0.1-3.5,2.3
				c0,2.2,1.7,2.4,3.5,2.4c6.1-0.1,12.1,0,18.6,0c-1.3,8.8-2.5,17.4-3.8,26c-0.3,2.1-1.3,3-3.4,2.9c-13-0.1-26-0.1-39,0
				c-2.1,0-3.1-0.9-3.5-2.9c-1.3-7.9-2.6-15.7-4-23.6c-0.3-1.7-0.1-2.5,2-2.5c5,0.2,10,0.1,15,0.1c1.9,0,4.6,0.6,4.6-2.4
				c-0.1-3.1-2.8-2.3-4.7-2.3c-6.6-0.1-13.3-0.1-19.9,0c-2,0.1-2.7-0.6-2.7-2.7s1-2.3,2.7-2.3c19.7,0.1,39.5,0.1,59.2,0
				c1.7,0,2.7,0.3,2.7,2.4C77.3,41.3,76.5,41.9,74.6,41.9z"/>
		</g>
	</g>
</g>
</svg>
